<svg width="100" height="47" viewBox="0 0 100 47" fill="none" xmlns="http://www.w3.org/2000/svg">
<g clip-path="url(#clip0)">
<path d="M4.83092 9.54315C7.49896 9.54315 9.66184 7.40684 9.66184 4.77157C9.66184 2.13631 7.49896 0 4.83092 0C2.16288 0 0 2.13631 0 4.77157C0 7.40684 2.16288 9.54315 4.83092 9.54315Z" fill="#366273"/>
<path d="M21.7391 9.54315C24.4072 9.54315 26.57 7.40684 26.57 4.77157C26.57 2.13631 24.4072 0 21.7391 0C19.0711 0 16.9082 2.13631 16.9082 4.77157C16.9082 7.40684 19.0711 9.54315 21.7391 9.54315Z" fill="#254B59"/>
<path d="M38.6473 9.54315C41.3154 9.54315 43.4782 7.40684 43.4782 4.77157C43.4782 2.13631 41.3154 0 38.6473 0C35.9793 0 33.8164 2.13631 33.8164 4.77157C33.8164 7.40684 35.9793 9.54315 38.6473 9.54315Z" fill="#00010D"/>
<path d="M9.5826 25.6234H3.11304L1.77391 28.6294H-0.017395L5.49565 16.6051H7.21739L12.7478 28.6294H10.9217L9.5826 25.6234ZM8.97391 24.2491L6.34782 18.3572L3.72173 24.2491H8.97391ZM29.7039 16.6051V28.6294H28.2778L20.9735 19.6627V28.6294H19.2344V16.6051H20.6605L27.9647 25.5718V16.6051H29.7039ZM39.5836 28.7669C38.8531 28.7669 38.1749 28.618 37.5488 28.3202C36.9227 28.011 36.4184 27.5816 36.0357 27.0319L37.0444 25.8638C37.7169 26.8143 38.5633 27.2896 39.5836 27.2896C40.2676 27.2896 40.7836 27.0835 41.1314 26.6712C41.4908 26.2589 41.6705 25.652 41.6705 24.8504V18.0995H37.2705V16.6051H43.3923V24.7645C43.3923 26.0929 43.0676 27.0949 42.4184 27.7706C41.7807 28.4348 40.8357 28.7669 39.5836 28.7669ZM60.4401 27.135V28.6294H51.6053V16.6051H60.1966V18.0995H53.3444V21.7927H59.4488V23.2528H53.3444V27.135H60.4401ZM73.4222 28.7669C72.1932 28.7669 71.086 28.5035 70.1005 27.9767C69.115 27.4385 68.3381 26.6998 67.77 25.7608C67.2135 24.8217 66.9352 23.7739 66.9352 22.6173C66.9352 21.4606 67.2135 20.4128 67.77 19.4737C68.3381 18.5347 69.115 17.8018 70.1005 17.275C71.086 16.7368 72.1932 16.4677 73.4222 16.4677C74.6396 16.4677 75.7411 16.7368 76.7266 17.275C77.7121 17.8018 78.4831 18.5347 79.0396 19.4737C79.5961 20.4013 79.8744 21.4492 79.8744 22.6173C79.8744 23.7853 79.5961 24.8389 79.0396 25.778C78.4831 26.7055 77.7121 27.4385 76.7266 27.9767C75.7411 28.5035 74.6396 28.7669 73.4222 28.7669ZM73.4222 27.2381C74.315 27.2381 75.115 27.0376 75.8222 26.6368C76.541 26.236 77.1034 25.6863 77.5092 24.9878C77.9266 24.2778 78.1353 23.4876 78.1353 22.6173C78.1353 21.7469 77.9266 20.9625 77.5092 20.2639C77.1034 19.5539 76.541 18.9985 75.8222 18.5977C75.115 18.1969 74.315 17.9965 73.4222 17.9965C72.5294 17.9965 71.7179 18.1969 70.9874 18.5977C70.2686 18.9985 69.7005 19.5539 69.2831 20.2639C68.8773 20.9625 68.6744 21.7469 68.6744 22.6173C68.6744 23.4876 68.8773 24.2778 69.2831 24.9878C69.7005 25.6863 70.2686 26.236 70.9874 26.6368C71.7179 27.0376 72.5294 27.2381 73.4222 27.2381ZM97.6727 16.6051V28.6294H96.2466L88.9423 19.6627V28.6294H87.2031V16.6051H88.6292L95.9336 25.5718V16.6051H97.6727Z" fill="#F2F2F2"/>
<path d="M3.62899 44.1828C3.04155 44.1828 2.51594 44.0531 2.05217 43.7935C1.58841 43.5339 1.22512 43.1751 0.962318 42.717C0.699516 42.2513 0.568115 41.7283 0.568115 41.1481C0.568115 40.5603 0.699516 40.0373 0.962318 39.5792C1.22512 39.1135 1.58841 38.7547 2.05217 38.5028C2.51594 38.2432 3.04155 38.1134 3.62899 38.1134C4.11594 38.1134 4.55652 38.2088 4.95073 38.3997C5.35266 38.5829 5.67729 38.8539 5.92464 39.2128L5.49565 39.522C5.27923 39.2242 5.0087 39.0028 4.68406 38.8578C4.36715 38.7051 4.01546 38.6287 3.62899 38.6287C3.15749 38.6287 2.73237 38.7356 2.35362 38.9494C1.98261 39.1555 1.68889 39.4494 1.47246 39.8312C1.26377 40.2129 1.15942 40.6519 1.15942 41.1481C1.15942 41.6444 1.26377 42.0834 1.47246 42.4651C1.68889 42.8468 1.98261 43.1445 2.35362 43.3583C2.73237 43.5644 3.15749 43.6675 3.62899 43.6675C4.01546 43.6675 4.36715 43.595 4.68406 43.4499C5.0087 43.2972 5.27923 43.072 5.49565 42.7743L5.92464 43.0835C5.67729 43.4423 5.35266 43.7171 4.95073 43.908C4.55652 44.0912 4.11594 44.1828 3.62899 44.1828ZM9.92345 44.1828C9.35147 44.1828 8.8336 44.0531 8.36983 43.7935C7.91379 43.5339 7.55437 43.1751 7.29157 42.717C7.02877 42.2513 6.89737 41.7283 6.89737 41.1481C6.89737 40.5679 7.02877 40.0488 7.29157 39.5907C7.55437 39.125 7.91379 38.7623 8.36983 38.5028C8.8336 38.2432 9.35147 38.1134 9.92345 38.1134C10.4954 38.1134 11.0094 38.2432 11.4655 38.5028C11.9293 38.7623 12.2925 39.125 12.5553 39.5907C12.8181 40.0488 12.9495 40.5679 12.9495 41.1481C12.9495 41.7283 12.8181 42.2513 12.5553 42.717C12.2925 43.1751 11.9293 43.5339 11.4655 43.7935C11.0094 44.0531 10.4954 44.1828 9.92345 44.1828ZM9.92345 43.6675C10.3872 43.6675 10.8007 43.5606 11.164 43.3469C11.535 43.1331 11.8249 42.8353 12.0336 42.4536C12.25 42.0719 12.3582 41.6367 12.3582 41.1481C12.3582 40.6595 12.25 40.2243 12.0336 39.8426C11.8249 39.4609 11.535 39.1631 11.164 38.9494C10.8007 38.7356 10.3872 38.6287 9.92345 38.6287C9.45969 38.6287 9.0423 38.7356 8.67128 38.9494C8.308 39.1631 8.01814 39.4609 7.80172 39.8426C7.59302 40.2243 7.48867 40.6595 7.48867 41.1481C7.48867 41.6367 7.59302 42.0719 7.80172 42.4536C8.01814 42.8353 8.308 43.1331 8.67128 43.3469C9.0423 43.5606 9.45969 43.6675 9.92345 43.6675ZM17.7045 38.1134C18.462 38.1134 19.0611 38.331 19.5016 38.7662C19.9422 39.2013 20.1625 39.8273 20.1625 40.6442V44.137H19.5828V40.6901C19.5828 40.0182 19.4089 39.5067 19.0611 39.1555C18.721 38.8043 18.2417 38.6287 17.6234 38.6287C16.9123 38.6287 16.3519 38.8387 15.9422 39.2586C15.5326 39.6785 15.3277 40.2434 15.3277 40.9534V44.137H14.748V38.1592H15.3045V39.4533C15.5132 39.0334 15.8224 38.7051 16.2321 38.4684C16.6495 38.2317 17.1403 38.1134 17.7045 38.1134ZM24.0796 44.1828C23.5927 44.1828 23.1289 44.1103 22.6883 43.9653C22.2477 43.8202 21.9038 43.637 21.6564 43.4156L21.9231 42.9575C22.1704 43.1636 22.4873 43.3354 22.8738 43.4728C23.268 43.6103 23.6777 43.679 24.1028 43.679C24.7135 43.679 25.1618 43.5797 25.4478 43.3812C25.7415 43.1827 25.8884 42.9079 25.8884 42.5567C25.8884 42.3048 25.8072 42.1063 25.6449 41.9612C25.4903 41.8161 25.2971 41.7093 25.0652 41.6405C24.8333 41.5718 24.5126 41.4993 24.1028 41.423C23.6236 41.339 23.2371 41.2474 22.9434 41.1481C22.6497 41.0489 22.3985 40.8885 22.1898 40.6671C21.9811 40.4457 21.8767 40.1404 21.8767 39.751C21.8767 39.2777 22.0738 38.8883 22.468 38.5829C22.87 38.2699 23.4381 38.1134 24.1725 38.1134C24.5589 38.1134 24.9415 38.1668 25.3203 38.2737C25.699 38.3806 26.0082 38.5218 26.2478 38.6974L25.9812 39.1555C25.7338 38.9799 25.4517 38.8463 25.1348 38.7547C24.8179 38.6631 24.4932 38.6173 24.1609 38.6173C23.5965 38.6173 23.1714 38.7203 22.8854 38.9265C22.5994 39.1326 22.4564 39.4036 22.4564 39.7396C22.4564 40.0068 22.5376 40.2167 22.6999 40.3694C22.8622 40.5145 23.0593 40.6252 23.2912 40.7015C23.5308 40.7702 23.8632 40.8466 24.2884 40.9305C24.7599 41.0145 25.1387 41.1061 25.4246 41.2054C25.7184 41.297 25.9657 41.4497 26.1667 41.6635C26.3676 41.8772 26.4681 42.1711 26.4681 42.5452C26.4681 43.0415 26.2594 43.4385 25.842 43.7362C25.4246 44.034 24.8372 44.1828 24.0796 44.1828ZM33.3845 38.1592V44.137H32.828V42.8544C32.6271 43.2743 32.3295 43.6026 31.9353 43.8393C31.5411 44.0683 31.0773 44.1828 30.544 44.1828C29.7556 44.1828 29.1372 43.9653 28.6889 43.5301C28.2406 43.0949 28.0164 42.4689 28.0164 41.652V38.1592H28.5961V41.6062C28.5961 42.278 28.7701 42.7895 29.1179 43.1407C29.4657 43.4919 29.9565 43.6675 30.5903 43.6675C31.2705 43.6675 31.8077 43.4576 32.2019 43.0377C32.6039 42.6178 32.8048 42.0528 32.8048 41.3428V38.1592H33.3845ZM35.8418 35.6398H36.4215V44.137H35.8418V35.6398ZM41.7884 43.7591C41.6415 43.8965 41.456 44.0034 41.2319 44.0798C41.0155 44.1485 40.7874 44.1828 40.5478 44.1828C40.0222 44.1828 39.6164 44.0416 39.3304 43.7591C39.0444 43.469 38.9015 43.0682 38.9015 42.5567V38.6516H37.7884V38.1592H38.9015V36.8537H39.4812V38.1592H41.4058V38.6516H39.4812V42.4994C39.4812 42.8888 39.5739 43.1865 39.7594 43.3927C39.9527 43.5912 40.2348 43.6904 40.6058 43.6904C40.9845 43.6904 41.2976 43.5797 41.5449 43.3583L41.7884 43.7591ZM45.5553 44.1828C44.9833 44.1828 44.4655 44.0531 44.0017 43.7935C43.5457 43.5339 43.1862 43.1751 42.9234 42.717C42.6606 42.2513 42.5292 41.7283 42.5292 41.1481C42.5292 40.5679 42.6606 40.0488 42.9234 39.5907C43.1862 39.125 43.5457 38.7623 44.0017 38.5028C44.4655 38.2432 44.9833 38.1134 45.5553 38.1134C46.1273 38.1134 46.6413 38.2432 47.0973 38.5028C47.5611 38.7623 47.9244 39.125 48.1872 39.5907C48.45 40.0488 48.5814 40.5679 48.5814 41.1481C48.5814 41.7283 48.45 42.2513 48.1872 42.717C47.9244 43.1751 47.5611 43.5339 47.0973 43.7935C46.6413 44.0531 46.1273 44.1828 45.5553 44.1828ZM45.5553 43.6675C46.0191 43.6675 46.4326 43.5606 46.7959 43.3469C47.1669 43.1331 47.4568 42.8353 47.6655 42.4536C47.8819 42.0719 47.9901 41.6367 47.9901 41.1481C47.9901 40.6595 47.8819 40.2243 47.6655 39.8426C47.4568 39.4609 47.1669 39.1631 46.7959 38.9494C46.4326 38.7356 46.0191 38.6287 45.5553 38.6287C45.0915 38.6287 44.6742 38.7356 44.3031 38.9494C43.9399 39.1631 43.65 39.4609 43.4336 39.8426C43.2249 40.2243 43.1205 40.6595 43.1205 41.1481C43.1205 41.6367 43.2249 42.0719 43.4336 42.4536C43.65 42.8353 43.9399 43.1331 44.3031 43.3469C44.6742 43.5606 45.0915 43.6675 45.5553 43.6675ZM50.9362 39.4647C51.1217 39.0295 51.4116 38.6974 51.8058 38.4684C52.2 38.2317 52.6792 38.1134 53.2435 38.1134V38.6745L53.1044 38.6631C52.4319 38.6631 51.9063 38.873 51.5275 39.2929C51.1488 39.7052 50.9594 40.2816 50.9594 41.0222V44.137H50.3797V38.1592H50.9362V39.4647ZM54.8408 38.1592H55.4205V44.137H54.8408V38.1592ZM55.1307 36.7048C54.9993 36.7048 54.8872 36.6628 54.7944 36.5789C54.7017 36.4872 54.6553 36.3765 54.6553 36.2468C54.6553 36.117 54.7017 36.0063 54.7944 35.9147C54.8872 35.823 54.9993 35.7772 55.1307 35.7772C55.2621 35.7772 55.3742 35.823 55.4669 35.9147C55.5597 35.9986 55.606 36.1055 55.606 36.2353C55.606 36.3651 55.5597 36.4758 55.4669 36.5674C55.3742 36.659 55.2621 36.7048 55.1307 36.7048ZM59.9046 38.1134C60.6544 38.1134 61.2302 38.3043 61.6321 38.686C62.0341 39.0601 62.235 39.6136 62.235 40.3465V44.137H61.6785V43.072C61.4853 43.4232 61.2031 43.6981 60.8321 43.8965C60.4611 44.0874 60.0167 44.1828 59.4988 44.1828C58.8263 44.1828 58.293 44.0263 57.8988 43.7133C57.5123 43.4003 57.3191 42.988 57.3191 42.4765C57.3191 41.9803 57.4969 41.5795 57.8524 41.2741C58.2157 40.9611 58.7916 40.8046 59.58 40.8046H61.6553V40.3236C61.6553 39.7663 61.5007 39.3426 61.1916 39.0524C60.8901 38.7623 60.4457 38.6173 59.8582 38.6173C59.4563 38.6173 59.0698 38.686 58.6988 38.8234C58.3355 38.9608 58.0263 39.1441 57.7713 39.3731L57.4814 38.9608C57.7829 38.6936 58.1461 38.4875 58.5713 38.3424C58.9964 38.1897 59.4408 38.1134 59.9046 38.1134ZM59.58 43.7133C60.0824 43.7133 60.5075 43.5988 60.8553 43.3698C61.2109 43.1407 61.4775 42.8086 61.6553 42.3735V41.2512H59.5916C58.9964 41.2512 58.5635 41.3581 58.293 41.5718C58.0302 41.7856 57.8988 42.0795 57.8988 42.4536C57.8988 42.843 58.0457 43.1522 58.3394 43.3812C58.6331 43.6026 59.0466 43.7133 59.58 43.7133Z" fill="#F2F2F2"/>
</g>
<defs>
<clipPath id="clip0">
<rect width="100" height="47" fill="white"/>
</clipPath>
</defs>
</svg>
