<svg width="100" height="47" viewBox="0 0 100 47" fill="none" xmlns="http://www.w3.org/2000/svg">
<g clip-path="url(#clip0)">
<path d="M4.83092 9.54315C7.49896 9.54315 9.66184 7.40684 9.66184 4.77157C9.66184 2.13631 7.49896 0 4.83092 0C2.16288 0 0 2.13631 0 4.77157C0 7.40684 2.16288 9.54315 4.83092 9.54315Z" fill="#366273"/>
<path d="M21.7391 9.54315C24.4072 9.54315 26.57 7.40684 26.57 4.77157C26.57 2.13631 24.4072 0 21.7391 0C19.0711 0 16.9082 2.13631 16.9082 4.77157C16.9082 7.40684 19.0711 9.54315 21.7391 9.54315Z" fill="#254B59"/>
<path d="M38.6473 9.54315C41.3154 9.54315 43.4782 7.40684 43.4782 4.77157C43.4782 2.13631 41.3154 0 38.6473 0C35.9793 0 33.8164 2.13631 33.8164 4.77157C33.8164 7.40684 35.9793 9.54315 38.6473 9.54315Z" fill="#00010D"/>
<path d="M9.5826 25.6235H3.11304L1.77391 28.6296H-0.017395L5.49565 16.6052H7.21739L12.7478 28.6296H10.9217L9.5826 25.6235ZM8.97391 24.2493L6.34782 18.3573L3.72173 24.2493H8.97391ZM29.7039 16.6052V28.6296H28.2778L20.9735 19.6628V28.6296H19.2344V16.6052H20.6605L27.9647 25.5719V16.6052H29.7039ZM39.5836 28.767C38.8531 28.767 38.1749 28.6181 37.5488 28.3204C36.9227 28.0112 36.4184 27.5817 36.0357 27.032L37.0444 25.864C37.7169 26.8145 38.5633 27.2897 39.5836 27.2897C40.2676 27.2897 40.7836 27.0836 41.1314 26.6713C41.4908 26.259 41.6705 25.6521 41.6705 24.8505V18.0997H37.2705V16.6052H43.3923V24.7646C43.3923 26.093 43.0676 27.095 42.4184 27.7707C41.7807 28.4349 40.8357 28.767 39.5836 28.767ZM60.4401 27.1351V28.6296H51.6053V16.6052H60.1966V18.0997H53.3444V21.7928H59.4488V23.2529H53.3444V27.1351H60.4401ZM73.4222 28.767C72.1932 28.767 71.086 28.5036 70.1005 27.9768C69.115 27.4386 68.3381 26.6999 67.77 25.7609C67.2135 24.8218 66.9352 23.774 66.9352 22.6174C66.9352 21.4607 67.2135 20.4129 67.77 19.4739C68.3381 18.5348 69.115 17.8019 70.1005 17.2751C71.086 16.7369 72.1932 16.4678 73.4222 16.4678C74.6396 16.4678 75.7411 16.7369 76.7266 17.2751C77.7121 17.8019 78.4831 18.5348 79.0396 19.4739C79.5961 20.4015 79.8744 21.4493 79.8744 22.6174C79.8744 23.7855 79.5961 24.839 79.0396 25.7781C78.4831 26.7057 77.7121 27.4386 76.7266 27.9768C75.7411 28.5036 74.6396 28.767 73.4222 28.767ZM73.4222 27.2382C74.315 27.2382 75.115 27.0378 75.8222 26.637C76.541 26.2361 77.1034 25.6865 77.5092 24.9879C77.9266 24.2779 78.1353 23.4877 78.1353 22.6174C78.1353 21.747 77.9266 20.9626 77.5092 20.264C77.1034 19.554 76.541 18.9986 75.8222 18.5978C75.115 18.197 74.315 17.9966 73.4222 17.9966C72.5294 17.9966 71.7179 18.197 70.9874 18.5978C70.2686 18.9986 69.7005 19.554 69.2831 20.264C68.8773 20.9626 68.6744 21.747 68.6744 22.6174C68.6744 23.4877 68.8773 24.2779 69.2831 24.9879C69.7005 25.6865 70.2686 26.2361 70.9874 26.637C71.7179 27.0378 72.5294 27.2382 73.4222 27.2382ZM97.6727 16.6052V28.6296H96.2466L88.9423 19.6628V28.6296H87.2031V16.6052H88.6292L95.9336 25.5719V16.6052H97.6727Z" fill="#333333"/>
<path d="M3.62899 44.1827C3.04155 44.1827 2.51594 44.0529 2.05217 43.7933C1.58841 43.5337 1.22512 43.1749 0.962318 42.7168C0.699516 42.2511 0.568115 41.7282 0.568115 41.148C0.568115 40.5601 0.699516 40.0371 0.962318 39.5791C1.22512 39.1134 1.58841 38.7545 2.05217 38.5026C2.51594 38.243 3.04155 38.1132 3.62899 38.1132C4.11594 38.1132 4.55652 38.2087 4.95073 38.3995C5.35266 38.5828 5.67729 38.8538 5.92464 39.2126L5.49565 39.5218C5.27923 39.2241 5.0087 39.0027 4.68406 38.8576C4.36715 38.7049 4.01546 38.6286 3.62899 38.6286C3.15749 38.6286 2.73237 38.7354 2.35362 38.9492C1.98261 39.1553 1.68889 39.4493 1.47246 39.831C1.26377 40.2127 1.15942 40.6517 1.15942 41.148C1.15942 41.6442 1.26377 42.0832 1.47246 42.4649C1.68889 42.8466 1.98261 43.1444 2.35362 43.3581C2.73237 43.5643 3.15749 43.6673 3.62899 43.6673C4.01546 43.6673 4.36715 43.5948 4.68406 43.4498C5.0087 43.2971 5.27923 43.0719 5.49565 42.7741L5.92464 43.0833C5.67729 43.4421 5.35266 43.717 4.95073 43.9078C4.55652 44.0911 4.11594 44.1827 3.62899 44.1827ZM9.92345 44.1827C9.35147 44.1827 8.8336 44.0529 8.36983 43.7933C7.91379 43.5337 7.55437 43.1749 7.29157 42.7168C7.02877 42.2511 6.89737 41.7282 6.89737 41.148C6.89737 40.5677 7.02877 40.0486 7.29157 39.5905C7.55437 39.1248 7.91379 38.7622 8.36983 38.5026C8.8336 38.243 9.35147 38.1132 9.92345 38.1132C10.4954 38.1132 11.0094 38.243 11.4655 38.5026C11.9293 38.7622 12.2925 39.1248 12.5553 39.5905C12.8181 40.0486 12.9495 40.5677 12.9495 41.148C12.9495 41.7282 12.8181 42.2511 12.5553 42.7168C12.2925 43.1749 11.9293 43.5337 11.4655 43.7933C11.0094 44.0529 10.4954 44.1827 9.92345 44.1827ZM9.92345 43.6673C10.3872 43.6673 10.8007 43.5605 11.164 43.3467C11.535 43.1329 11.8249 42.8352 12.0336 42.4535C12.25 42.0717 12.3582 41.6366 12.3582 41.148C12.3582 40.6593 12.25 40.2242 12.0336 39.8425C11.8249 39.4607 11.535 39.163 11.164 38.9492C10.8007 38.7354 10.3872 38.6286 9.92345 38.6286C9.45969 38.6286 9.0423 38.7354 8.67128 38.9492C8.308 39.163 8.01814 39.4607 7.80172 39.8425C7.59302 40.2242 7.48867 40.6593 7.48867 41.148C7.48867 41.6366 7.59302 42.0717 7.80172 42.4535C8.01814 42.8352 8.308 43.1329 8.67128 43.3467C9.0423 43.5605 9.45969 43.6673 9.92345 43.6673ZM17.7045 38.1132C18.462 38.1132 19.0611 38.3308 19.5016 38.766C19.9422 39.2012 20.1625 39.8272 20.1625 40.6441V44.1369H19.5828V40.6899C19.5828 40.018 19.4089 39.5065 19.0611 39.1553C18.721 38.8042 18.2417 38.6286 17.6234 38.6286C16.9123 38.6286 16.3519 38.8385 15.9422 39.2584C15.5326 39.6783 15.3277 40.2433 15.3277 40.9533V44.1369H14.748V38.159H15.3045V39.4531C15.5132 39.0332 15.8224 38.7049 16.2321 38.4682C16.6495 38.2316 17.1403 38.1132 17.7045 38.1132ZM24.0796 44.1827C23.5927 44.1827 23.1289 44.1101 22.6883 43.9651C22.2477 43.82 21.9038 43.6368 21.6564 43.4154L21.9231 42.9573C22.1704 43.1635 22.4873 43.3352 22.8738 43.4727C23.268 43.6101 23.6777 43.6788 24.1028 43.6788C24.7135 43.6788 25.1618 43.5795 25.4478 43.381C25.7415 43.1826 25.8884 42.9077 25.8884 42.5565C25.8884 42.3046 25.8072 42.1061 25.6449 41.961C25.4903 41.816 25.2971 41.7091 25.0652 41.6404C24.8333 41.5717 24.5126 41.4991 24.1028 41.4228C23.6236 41.3388 23.2371 41.2472 22.9434 41.148C22.6497 41.0487 22.3985 40.8884 22.1898 40.667C21.9811 40.4456 21.8767 40.1402 21.8767 39.7508C21.8767 39.2775 22.0738 38.8881 22.468 38.5828C22.87 38.2697 23.4381 38.1132 24.1725 38.1132C24.5589 38.1132 24.9415 38.1667 25.3203 38.2736C25.699 38.3804 26.0082 38.5217 26.2478 38.6973L25.9812 39.1553C25.7338 38.9797 25.4517 38.8461 25.1348 38.7545C24.8179 38.6629 24.4932 38.6171 24.1609 38.6171C23.5965 38.6171 23.1714 38.7202 22.8854 38.9263C22.5994 39.1324 22.4564 39.4035 22.4564 39.7394C22.4564 40.0066 22.5376 40.2165 22.6999 40.3692C22.8622 40.5143 23.0593 40.625 23.2912 40.7013C23.5308 40.77 23.8632 40.8464 24.2884 40.9304C24.7599 41.0143 25.1387 41.106 25.4246 41.2052C25.7184 41.2968 25.9657 41.4495 26.1667 41.6633C26.3676 41.8771 26.4681 42.171 26.4681 42.5451C26.4681 43.0413 26.2594 43.4383 25.842 43.7361C25.4246 44.0338 24.8372 44.1827 24.0796 44.1827ZM33.3845 38.159V44.1369H32.828V42.8543C32.6271 43.2742 32.3295 43.6025 31.9353 43.8391C31.5411 44.0682 31.0773 44.1827 30.544 44.1827C29.7556 44.1827 29.1372 43.9651 28.6889 43.5299C28.2406 43.0948 28.0164 42.4687 28.0164 41.6518V38.159H28.5961V41.606C28.5961 42.2779 28.7701 42.7894 29.1179 43.1406C29.4657 43.4918 29.9565 43.6673 30.5903 43.6673C31.2705 43.6673 31.8077 43.4574 32.2019 43.0375C32.6039 42.6176 32.8048 42.0526 32.8048 41.3426V38.159H33.3845ZM35.8418 35.6396H36.4215V44.1369H35.8418V35.6396ZM41.7884 43.759C41.6415 43.8964 41.456 44.0033 41.2319 44.0796C41.0155 44.1483 40.7874 44.1827 40.5478 44.1827C40.0222 44.1827 39.6164 44.0414 39.3304 43.759C39.0444 43.4688 38.9015 43.068 38.9015 42.5565V38.6515H37.7884V38.159H38.9015V36.8535H39.4812V38.159H41.4058V38.6515H39.4812V42.4993C39.4812 42.8886 39.5739 43.1864 39.7594 43.3925C39.9527 43.591 40.2348 43.6902 40.6058 43.6902C40.9845 43.6902 41.2976 43.5795 41.5449 43.3581L41.7884 43.759ZM45.5553 44.1827C44.9833 44.1827 44.4655 44.0529 44.0017 43.7933C43.5457 43.5337 43.1862 43.1749 42.9234 42.7168C42.6606 42.2511 42.5292 41.7282 42.5292 41.148C42.5292 40.5677 42.6606 40.0486 42.9234 39.5905C43.1862 39.1248 43.5457 38.7622 44.0017 38.5026C44.4655 38.243 44.9833 38.1132 45.5553 38.1132C46.1273 38.1132 46.6413 38.243 47.0973 38.5026C47.5611 38.7622 47.9244 39.1248 48.1872 39.5905C48.45 40.0486 48.5814 40.5677 48.5814 41.148C48.5814 41.7282 48.45 42.2511 48.1872 42.7168C47.9244 43.1749 47.5611 43.5337 47.0973 43.7933C46.6413 44.0529 46.1273 44.1827 45.5553 44.1827ZM45.5553 43.6673C46.0191 43.6673 46.4326 43.5605 46.7959 43.3467C47.1669 43.1329 47.4568 42.8352 47.6655 42.4535C47.8819 42.0717 47.9901 41.6366 47.9901 41.148C47.9901 40.6593 47.8819 40.2242 47.6655 39.8425C47.4568 39.4607 47.1669 39.163 46.7959 38.9492C46.4326 38.7354 46.0191 38.6286 45.5553 38.6286C45.0915 38.6286 44.6742 38.7354 44.3031 38.9492C43.9399 39.163 43.65 39.4607 43.4336 39.8425C43.2249 40.2242 43.1205 40.6593 43.1205 41.148C43.1205 41.6366 43.2249 42.0717 43.4336 42.4535C43.65 42.8352 43.9399 43.1329 44.3031 43.3467C44.6742 43.5605 45.0915 43.6673 45.5553 43.6673ZM50.9362 39.4645C51.1217 39.0294 51.4116 38.6973 51.8058 38.4682C52.2 38.2316 52.6792 38.1132 53.2435 38.1132V38.6744L53.1044 38.6629C52.4319 38.6629 51.9063 38.8729 51.5275 39.2928C51.1488 39.705 50.9594 40.2814 50.9594 41.022V44.1369H50.3797V38.159H50.9362V39.4645ZM54.8408 38.159H55.4205V44.1369H54.8408V38.159ZM55.1307 36.7047C54.9993 36.7047 54.8872 36.6627 54.7944 36.5787C54.7017 36.4871 54.6553 36.3764 54.6553 36.2466C54.6553 36.1168 54.7017 36.0061 54.7944 35.9145C54.8872 35.8229 54.9993 35.7771 55.1307 35.7771C55.2621 35.7771 55.3742 35.8229 55.4669 35.9145C55.5597 35.9985 55.606 36.1054 55.606 36.2351C55.606 36.3649 55.5597 36.4756 55.4669 36.5672C55.3742 36.6589 55.2621 36.7047 55.1307 36.7047ZM59.9046 38.1132C60.6544 38.1132 61.2302 38.3041 61.6321 38.6858C62.0341 39.0599 62.235 39.6134 62.235 40.3463V44.1369H61.6785V43.0719C61.4853 43.423 61.2031 43.6979 60.8321 43.8964C60.4611 44.0872 60.0167 44.1827 59.4988 44.1827C58.8263 44.1827 58.293 44.0262 57.8988 43.7132C57.5123 43.4001 57.3191 42.9879 57.3191 42.4764C57.3191 41.9801 57.4969 41.5793 57.8524 41.2739C58.2157 40.9609 58.7916 40.8044 59.58 40.8044H61.6553V40.3234C61.6553 39.7661 61.5007 39.3424 61.1916 39.0523C60.8901 38.7622 60.4457 38.6171 59.8582 38.6171C59.4563 38.6171 59.0698 38.6858 58.6988 38.8232C58.3355 38.9607 58.0263 39.1439 57.7713 39.3729L57.4814 38.9607C57.7829 38.6935 58.1461 38.4873 58.5713 38.3423C58.9964 38.1896 59.4408 38.1132 59.9046 38.1132ZM59.58 43.7132C60.0824 43.7132 60.5075 43.5986 60.8553 43.3696C61.2109 43.1406 61.4775 42.8085 61.6553 42.3733V41.251H59.5916C58.9964 41.251 58.5635 41.3579 58.293 41.5717C58.0302 41.7854 57.8988 42.0794 57.8988 42.4535C57.8988 42.8428 58.0457 43.152 58.3394 43.381C58.6331 43.6025 59.0466 43.7132 59.58 43.7132Z" fill="#333333"/>
</g>
<defs>
<clipPath id="clip0">
<rect width="100" height="47" fill="white"/>
</clipPath>
</defs>
</svg>
