<svg width="56" height="56" viewBox="0 0 56 56" fill="none" xmlns="http://www.w3.org/2000/svg">
<g clip-path="url(#clip0)">
<path d="M25.2 7.4667H30.8C31.3155 7.4667 31.7333 7.04884 31.7333 6.53337C31.7333 6.0179 31.3155 5.60004 30.8 5.60004H25.2C24.6845 5.60004 24.2667 6.0179 24.2667 6.53337C24.2667 7.04884 24.6845 7.4667 25.2 7.4667Z" fill="#333333"/>
<path d="M41.0666 7.4667H51.3333C51.8488 7.4667 52.2666 7.04884 52.2666 6.53337C52.2666 6.0179 51.8488 5.60004 51.3333 5.60004H41.0666C40.5512 5.60004 40.1333 6.0179 40.1333 6.53337C40.1333 7.04884 40.5512 7.4667 41.0666 7.4667Z" fill="#333333"/>
<path d="M51.3333 1.8667H4.66667C2.09062 1.86978 0.00308571 3.95732 0 6.53337V49.4667C0.00308571 52.0428 2.09062 54.1303 4.66667 54.1334H51.3333C53.9094 54.1303 55.9969 52.0428 56 49.4667V6.53337C55.9969 3.95732 53.9094 1.86978 51.3333 1.8667ZM4.66667 3.73337H51.3333C52.8797 3.73337 54.1333 4.98697 54.1333 6.53337V9.33337H1.86667V6.53337C1.86667 4.98697 3.12027 3.73337 4.66667 3.73337ZM51.3333 52.2667H4.66667C3.12027 52.2667 1.86667 51.0131 1.86667 49.4667V11.2H54.1333V49.4667C54.1333 51.0131 52.8797 52.2667 51.3333 52.2667Z" fill="#333333"/>
<path d="M4.66667 7.4667C5.18214 7.4667 5.60001 7.04884 5.60001 6.53337C5.60001 6.0179 5.18214 5.60004 4.66667 5.60004C4.15121 5.60004 3.73334 6.0179 3.73334 6.53337C3.73334 7.04884 4.15121 7.4667 4.66667 7.4667Z" fill="#333333"/>
<path d="M8.40001 7.4667C8.91548 7.4667 9.33334 7.04884 9.33334 6.53337C9.33334 6.0179 8.91548 5.60004 8.40001 5.60004C7.88454 5.60004 7.46667 6.0179 7.46667 6.53337C7.46667 7.04884 7.88454 7.4667 8.40001 7.4667Z" fill="#333333"/>
<path d="M12.1333 7.4667C12.6488 7.4667 13.0667 7.04884 13.0667 6.53337C13.0667 6.0179 12.6488 5.60004 12.1333 5.60004C11.6179 5.60004 11.2 6.0179 11.2 6.53337C11.2 7.04884 11.6179 7.4667 12.1333 7.4667Z" fill="#333333"/>
<path d="M35.4666 33.6001C33.1288 33.6033 30.9708 34.8554 29.8078 36.8836C28.6888 36.239 27.3112 36.239 26.1921 36.8836C24.4704 33.8814 20.722 32.7191 17.6039 34.2206C14.4857 35.7221 13.0571 39.3773 14.3306 42.5953C15.6041 45.8133 19.1472 47.5009 22.4484 46.4619C25.7496 45.4229 27.6875 42.0102 26.8884 38.6429C27.5592 38.1864 28.4408 38.1864 29.1116 38.6429C28.4772 41.3501 29.6258 44.1621 31.974 45.6511C34.3222 47.14 37.3556 46.9796 39.5337 45.2513C41.7117 43.5229 42.5573 40.6054 41.641 37.9803C40.7246 35.3551 38.2471 33.5975 35.4666 33.6001ZM20.5333 44.8001C17.956 44.8001 15.8666 42.7108 15.8666 40.1334C15.8666 37.5561 17.956 35.4668 20.5333 35.4668C23.1106 35.4668 25.2 37.5561 25.2 40.1334C25.1969 42.7095 23.1094 44.797 20.5333 44.8001ZM35.4666 44.8001C32.8893 44.8001 30.8 42.7108 30.8 40.1334C30.8 37.5561 32.8893 35.4668 35.4666 35.4668C38.044 35.4668 40.1333 37.5561 40.1333 40.1334C40.1302 42.7095 38.0427 44.797 35.4666 44.8001Z" fill="#333333"/>
<path d="M38.9079 25.9849L36.3412 17.64C36.0289 16.6278 35.3022 15.7955 34.3414 15.3496C33.3806 14.9037 32.2758 14.8861 31.3012 15.301L28.7271 16.4061C28.2628 16.6114 27.7335 16.6114 27.2692 16.4061L24.6979 15.2973C23.7233 14.8823 22.6185 14.9 21.6577 15.3459C20.6969 15.7918 19.9702 16.6241 19.6579 17.6362L17.0912 25.9849C14.4701 26.7767 12.0934 28.2219 10.1845 30.1849C9.94247 30.4612 9.88496 30.8538 10.0376 31.1879C10.1903 31.522 10.5247 31.7355 10.892 31.7333H45.108C45.4739 31.7333 45.8061 31.5196 45.9576 31.1865C46.1092 30.8535 46.0521 30.4626 45.8117 30.1868C43.9039 28.2235 41.5282 26.7776 38.9079 25.9849ZM21.4443 18.1841C21.6012 17.6786 21.9646 17.263 22.4447 17.04C22.9248 16.817 23.4768 16.8075 23.9643 17.0137L26.5235 18.1113C27.4622 18.5229 28.5303 18.5229 29.4691 18.1113L32.0329 17.01C32.5206 16.8041 33.0726 16.8139 33.5526 17.037C34.0326 17.2601 34.396 17.6758 34.5529 18.1813L36.7528 25.3362C31.0035 23.9051 24.991 23.9051 19.2416 25.3362L21.4443 18.1841ZM13.3467 29.8666C16.6283 27.5548 22.0668 26.1333 28 26.1333C31.3253 26.1092 34.6347 26.5945 37.8131 27.5725C37.8564 27.5892 37.9011 27.6023 37.9466 27.6117C39.6173 28.1293 41.2031 28.889 42.6534 29.8666H13.3467Z" fill="#333333"/>
</g>
<defs>
<clipPath id="clip0">
<rect width="56" height="56" fill="white"/>
</clipPath>
</defs>
</svg>
