<svg width="56" height="56" viewBox="0 0 56 56" fill="none" xmlns="http://www.w3.org/2000/svg">
<g clip-path="url(#clip0)">
<path d="M42.4669 0H5.13336C2.55735 0.00303335 0.469708 2.09068 0.466675 4.66669V34.5335C0.466441 36.6621 1.90658 38.5209 3.96762 39.0527L4.43429 37.2458C3.19727 36.9268 2.33288 35.811 2.33335 34.5335V4.66669C2.33335 3.12026 3.58694 1.86667 5.13336 1.86667H42.4669C44.0133 1.86667 45.2669 3.12026 45.2669 4.66669V5.60002H47.1335V4.66669C47.1305 2.09068 45.0429 0.00303335 42.4669 0Z" fill="#333333"/>
<path d="M6.06669 3.7334H4.20001V5.60007H6.06669V3.7334Z" fill="#333333"/>
<path d="M9.80008 3.7334H7.93341V5.60007H9.80008V3.7334Z" fill="#333333"/>
<path d="M13.5334 3.7334H11.6667V5.60007H13.5334V3.7334Z" fill="#333333"/>
<path d="M55.2601 51.6071L46.4074 42.7544C46.8724 41.9243 47.2444 41.0453 47.5162 40.1336H49.0002V38.2669H47.9175C48.2691 36.0076 47.998 33.6953 47.1335 31.5786V22.4002H45.2669V28.3437C44.7126 27.6356 44.0871 26.9864 43.4002 26.4061V18.6668H41.5335V25.1012C40.9361 24.755 40.3118 24.4569 39.6668 24.2099V14.9335H37.8002V23.6434C37.1851 23.5106 36.5613 23.423 35.9335 23.3811V16.8001H34.0668V23.3811C33.439 23.423 32.8152 23.5106 32.2001 23.6434V20.5335H30.3335V24.2099C29.6885 24.4569 29.0644 24.755 28.4668 25.1012V19.6002H26.6001V26.4061C25.9132 26.9864 25.2877 27.6356 24.7334 28.3437V21.4668H22.8668V31.5786C22.0023 33.6953 21.7312 36.0076 22.0828 38.2669H9.80005V40.1336H22.4841C24.5311 47.0382 31.7878 50.9759 38.6923 48.9289C40.0529 48.5255 41.3386 47.9027 42.4986 47.0851L51.1404 55.7269C51.5048 56.0912 52.0956 56.0912 52.4601 55.7269L55.2601 52.9268C55.6245 52.5624 55.6245 51.9716 55.2601 51.6071ZM35.0002 47.6003C28.8173 47.5936 23.8068 42.5831 23.8001 36.4002C23.8001 30.2147 28.8146 25.2002 35.0002 25.2002C41.1857 25.2002 46.2002 30.2147 46.2002 36.4002C46.2002 42.5858 41.1857 47.6003 35.0002 47.6003ZM51.8002 53.7472L43.949 45.896C44.4577 45.4153 44.9274 44.8951 45.3537 44.3401L53.2805 52.267L51.8002 53.7472Z" fill="#333333"/>
<path d="M35.0002 27.0668C29.8455 27.0668 25.6668 31.2454 25.6668 36.4001C25.6668 41.5548 29.8455 45.7335 35.0002 45.7335C40.1549 45.7335 44.3336 41.5548 44.3336 36.4001C44.328 31.2478 40.1526 27.0724 35.0002 27.0668ZM35.0002 43.8668C32.336 43.8635 29.8755 42.4407 28.5434 40.1335H41.457C40.1249 42.4407 37.6644 43.8635 35.0002 43.8668ZM27.779 38.2668C27.028 35.4248 28.0307 32.4078 30.3335 30.5808V36.4001H32.2002V29.4832C32.7987 29.241 33.4262 29.0779 34.0668 28.9978V36.4001H35.9335V28.9978C36.5741 29.0779 37.2017 29.241 37.8002 29.4832V36.4001H39.6669V30.5808C41.9696 32.4078 42.9724 35.4248 42.2214 38.2668H27.779Z" fill="#333333"/>
<path d="M48.0669 7.46667H10.7334C8.15739 7.46971 6.06974 9.55735 6.06671 12.1334V42.0001C6.06974 44.5762 8.15739 46.6638 10.7334 46.6668H22.8668V44.8002H10.7334C9.18697 44.8002 7.93339 43.5466 7.93339 42.0001V12.1334C7.93339 10.5869 9.18697 9.33335 10.7334 9.33335H48.0669C49.6133 9.33335 50.8669 10.5869 50.8669 12.1334V42.0001C50.8668 42.6821 50.6179 43.3404 50.1669 43.8519L51.5669 45.0867C52.3192 44.2346 52.734 43.1368 52.7336 42.0001V12.1334C52.7305 9.55735 50.6429 7.46971 48.0669 7.46667Z" fill="#333333"/>
<path d="M11.6667 11.2001H9.80005V13.0667H11.6667V11.2001Z" fill="#333333"/>
<path d="M15.4001 11.2001H13.5334V13.0667H15.4001V11.2001Z" fill="#333333"/>
<path d="M19.1334 11.2001H17.2667V13.0667H19.1334V11.2001Z" fill="#333333"/>
<path d="M13.5334 30.8002H11.6667V36.4002H13.5334V30.8002Z" fill="#333333"/>
<path d="M17.2668 25.2001H15.4001V36.4001H17.2668V25.2001Z" fill="#333333"/>
<path d="M21.0001 28.0001H19.1334V36.4002H21.0001V28.0001Z" fill="#333333"/>
</g>
<defs>
<clipPath id="clip0">
<rect width="56" height="56" fill="white"/>
</clipPath>
</defs>
</svg>
