<svg width="56" height="56" viewBox="0 0 56 56" fill="none" xmlns="http://www.w3.org/2000/svg">
<path d="M6.53328 3.73328H5.59998C5.0845 3.73328 4.66669 4.15109 4.66669 4.66657C4.66669 5.18206 5.0845 5.59998 5.59998 5.59998H6.53328C7.04877 5.59998 7.46658 5.18217 7.46658 4.66668C7.46658 4.1512 7.04877 3.73328 6.53328 3.73328Z" fill="#333333"/>
<path d="M11.2 3.73328H10.2667C9.75125 3.73328 9.33344 4.15109 9.33344 4.66657C9.33344 5.18206 9.75136 5.59987 10.2667 5.59987H11.2C11.7155 5.59987 12.1333 5.18206 12.1333 4.66657C12.1333 4.15109 11.7155 3.73328 11.2 3.73328Z" fill="#333333"/>
<path d="M15.8667 3.73328H14.9334C14.4179 3.73328 14.0001 4.15109 14.0001 4.66657C14.0001 5.18206 14.4179 5.59987 14.9334 5.59987H15.8667C16.3822 5.59987 16.8 5.18206 16.8 4.66657C16.8 4.15109 16.3821 3.73328 15.8667 3.73328Z" fill="#333333"/>
<path d="M44.8 3.73328H19.6C19.0845 3.73328 18.6667 4.15109 18.6667 4.66657C18.6667 5.18206 19.0845 5.59987 19.6 5.59987H44.8C45.3155 5.59987 45.7333 5.18206 45.7333 4.66657C45.7333 4.15109 45.3155 3.73328 44.8 3.73328Z" fill="#333333"/>
<path d="M54.1333 33.6H53.2V28.9333C53.1992 26.32 52.1973 23.8062 50.4 21.909V4.6667C50.3969 2.09059 48.3094 0.0030625 45.7333 0H4.6667C2.09059 0.0030625 0.0030625 2.09059 0 4.6667V42C0.0030625 44.576 2.09059 46.6635 4.6667 46.6667H29.8667V49.4667C29.8709 53.0732 32.7935 55.996 36.4 56H49.4667C53.0732 55.9958 55.996 53.0732 56 49.4667V35.4667C56 34.4357 55.1643 33.6 54.1333 33.6ZM51.3333 28.9333V33.6H34.5333V28.9333C34.5333 24.2942 38.2942 20.5333 42.9333 20.5333C47.5724 20.5333 51.3333 24.2942 51.3333 28.9333ZM1.8667 4.6667C1.8667 3.12036 3.12036 1.8667 4.6667 1.8667H45.7334C47.2798 1.8667 48.5334 3.12036 48.5334 4.6667V7.4667H1.8667V4.6667ZM29.8667 35.4667V44.8H4.6667C3.12036 44.8 1.8667 43.5463 1.8667 42V9.3333H48.5334V20.3392C45.3802 18.2766 41.3499 18.1094 38.0368 19.904C34.7237 21.6985 32.6618 25.1654 32.6667 28.9333V33.6H31.7334C30.7024 33.6 29.8667 34.4357 29.8667 35.4667ZM54.1333 37.3333H51.3333C50.8178 37.3333 50.4 37.7511 50.4 38.2666C50.4 38.7821 50.8178 39.1999 51.3333 39.1999H54.1333V41.0666H51.3333C50.8178 41.0666 50.4 41.4844 50.4 41.9999C50.4 42.5154 50.8178 42.9332 51.3333 42.9332H54.1333V44.8H51.3333C50.8178 44.8 50.4 45.2178 50.4 45.7333C50.4 46.2488 50.8178 46.6666 51.3333 46.6666H54.1333V48.5333H51.3333C50.8178 48.5333 50.4 48.9512 50.4 49.4666C50.4 49.9821 50.8178 50.3999 51.3333 50.3999H54.04C53.5934 52.5712 51.6834 54.1305 49.4667 54.1332H36.4C34.1833 54.1303 32.2732 52.5712 31.8267 50.3999H34.5334C35.0489 50.3999 35.4667 49.982 35.4667 49.4666C35.4667 48.9511 35.0489 48.5333 34.5334 48.5333H31.7334V46.6666H34.5334C35.0489 46.6666 35.4667 46.2488 35.4667 45.7333C35.4667 45.2178 35.0489 44.8 34.5334 44.8H31.7334V42.9333H34.5334C35.0489 42.9333 35.4667 42.5155 35.4667 42C35.4667 41.4845 35.0489 41.0667 34.5334 41.0667H31.7334V39.2H34.5334C35.0489 39.2 35.4667 38.7822 35.4667 38.2667C35.4667 37.7512 35.0489 37.3334 34.5334 37.3334H31.7334V35.4667H54.1334V37.3333H54.1333Z" fill="#333333"/>
<path d="M42 45.5616V47.6C42 48.1155 42.4179 48.5333 42.9333 48.5333C43.4488 48.5333 43.8666 48.1155 43.8666 47.6V45.5616C45.1514 45.1091 45.9224 43.7958 45.6916 42.4534C45.4609 41.1109 44.2955 40.1307 42.9333 40.1333C41.5712 40.1307 40.4058 41.111 40.175 42.4534C39.9442 43.7958 40.7152 45.1091 42 45.5616ZM42.9333 42C43.4488 42 43.8666 42.4179 43.8666 42.9333C43.8666 43.4488 43.4487 43.8666 42.9333 43.8666C42.4178 43.8666 42 43.4487 42 42.9333C42 42.4179 42.4179 42 42.9333 42Z" fill="#333333"/>
<path d="M15.8667 18.6667C15.3512 18.6667 14.9334 19.0845 14.9334 19.6V22.4H7.46668V14.9333H11.2C11.7155 14.9333 12.1333 14.5155 12.1333 14C12.1333 13.4845 11.7155 13.0667 11.2 13.0667H7.46668C6.43571 13.0667 5.59998 13.9024 5.59998 14.9334V22.4C5.59998 23.431 6.43571 24.2667 7.46668 24.2667H14.9334C15.9643 24.2667 16.8001 23.431 16.8001 22.4V19.6C16.8 19.0845 16.3821 18.6667 15.8667 18.6667Z" fill="#333333"/>
<path d="M9.99317 17.0735C9.62698 16.7197 9.04478 16.7248 8.68483 17.0848C8.32477 17.4449 8.31974 18.027 8.67345 18.3932L10.5402 20.2599C10.7152 20.4349 10.9525 20.5333 11.2 20.5333H11.242C11.5039 20.5216 11.7488 20.4004 11.9169 20.1992L16.5836 14.5992C16.7973 14.3431 16.8582 13.9925 16.7432 13.6792C16.6283 13.3661 16.3551 13.138 16.0264 13.0809C15.6977 13.0238 15.3636 13.1464 15.1499 13.4026L11.1366 18.2186L9.99317 17.0735Z" fill="#333333"/>
<path d="M15.8667 34.5333C15.3512 34.5333 14.9334 34.9511 14.9334 35.4666V38.2666H7.46668V30.8H11.2C11.7155 30.8 12.1333 30.3821 12.1333 29.8667C12.1333 29.3512 11.7155 28.9334 11.2 28.9334H7.46668C6.43571 28.9334 5.59998 29.7691 5.59998 30.8001V38.2668C5.59998 39.2978 6.43571 40.1335 7.46668 40.1335H14.9334C15.9643 40.1335 16.8001 39.2978 16.8001 38.2668V35.4668C16.8 34.9512 16.3821 34.5333 15.8667 34.5333Z" fill="#333333"/>
<path d="M9.99317 32.9402C9.62698 32.5864 9.04478 32.5915 8.68483 32.9515C8.32477 33.3116 8.31974 33.8937 8.67345 34.2599L10.5402 36.1266C10.7152 36.3016 10.9525 36.4 11.2 36.4H11.242C11.5039 36.3883 11.7488 36.2671 11.9169 36.0659L16.5836 30.4659C16.7973 30.2098 16.8582 29.8592 16.7432 29.546C16.6283 29.2329 16.3551 29.0048 16.0264 28.9478C15.6977 28.8907 15.3636 29.0133 15.1499 29.2694L11.1366 34.0854L9.99317 32.9402Z" fill="#333333"/>
<path d="M20.5333 15.8667H28C28.5155 15.8667 28.9333 15.4489 28.9333 14.9334C28.9333 14.4179 28.5155 14 28 14H20.5333C20.0178 14 19.6 14.4178 19.6 14.9333C19.6 15.4488 20.0179 15.8667 20.5333 15.8667Z" fill="#333333"/>
<path d="M33.6 19.6C33.6 19.0845 33.1822 18.6667 32.6667 18.6667H20.5333C20.0178 18.6667 19.6 19.0845 19.6 19.6C19.6 20.1155 20.0178 20.5333 20.5333 20.5333H32.6666C33.1822 20.5333 33.6 20.1155 33.6 19.6Z" fill="#333333"/>
<path d="M28 29.8667H20.5333C20.0178 29.8667 19.6 30.2846 19.6 30.8C19.6 31.3154 20.0178 31.7333 20.5333 31.7333H28C28.5155 31.7333 28.9333 31.3155 28.9333 30.8C28.9333 30.2845 28.5155 29.8667 28 29.8667Z" fill="#333333"/>
<path d="M27.0667 34.5333H20.5334C20.0179 34.5333 19.6001 34.9511 19.6001 35.4666C19.6001 35.982 20.0179 36.3999 20.5334 36.3999H27.0667C27.5822 36.3999 28 35.982 28 35.4666C28 34.9511 27.5822 34.5333 27.0667 34.5333Z" fill="#333333"/>
</svg>
