<svg width="44" height="10" viewBox="0 0 44 10" fill="none" xmlns="http://www.w3.org/2000/svg">
<path d="M4.83092 9.54315C7.49896 9.54315 9.66184 7.40684 9.66184 4.77157C9.66184 2.13631 7.49896 0 4.83092 0C2.16288 0 0 2.13631 0 4.77157C0 7.40684 2.16288 9.54315 4.83092 9.54315Z" fill="#366273"/>
<path d="M21.7391 9.54315C24.4072 9.54315 26.57 7.40684 26.57 4.77157C26.57 2.13631 24.4072 0 21.7391 0C19.0711 0 16.9082 2.13631 16.9082 4.77157C16.9082 7.40684 19.0711 9.54315 21.7391 9.54315Z" fill="#254B59"/>
<path d="M38.6473 9.54315C41.3154 9.54315 43.4782 7.40684 43.4782 4.77157C43.4782 2.13631 41.3154 0 38.6473 0C35.9793 0 33.8164 2.13631 33.8164 4.77157C33.8164 7.40684 35.9793 9.54315 38.6473 9.54315Z" fill="#00010D"/>
</svg>
